<svg xmlns="http://www.w3.org/2000/svg" width="800" height="600" viewBox="0 0 800 600">
  <rect width="800" height="600" fill="#1A1714"/>
  <rect x="1" y="1" width="798" height="598" fill="none" stroke="#9E7A3A" stroke-width="1" opacity="0.3"/>
  <rect x="40" y="40" width="720" height="520" fill="none" stroke="#9E7A3A" stroke-width="1" opacity="0.15"/>
  <!-- Abstract city/chart lines -->
  <g opacity="0.1" fill="#9E7A3A">
    <rect x="100" y="320" width="60" height="120"/>
    <rect x="180" y="280" width="60" height="160"/>
    <rect x="260" y="240" width="60" height="200"/>
    <rect x="340" y="200" width="60" height="240"/>
    <rect x="420" y="160" width="60" height="280"/>
    <rect x="500" y="180" width="60" height="260"/>
    <rect x="580" y="140" width="60" height="300"/>
    <rect x="660" y="100" width="60" height="340"/>
  </g>
  <!-- Trend line -->
  <polyline points="130,380 210,340 290,300 370,260 450,220 530,240 610,200 690,160" 
    fill="none" stroke="#9E7A3A" stroke-width="1.5" opacity="0.35"/>
  <!-- Decorative circle -->
  <circle cx="400" cy="300" r="80" fill="none" stroke="#9E7A3A" stroke-width="1" opacity="0.12"/>
  <circle cx="400" cy="300" r="60" fill="none" stroke="#9E7A3A" stroke-width="1" opacity="0.08"/>
  <!-- Lines -->
  <line x1="300" y1="480" x2="500" y2="480" stroke="#9E7A3A" stroke-width="1" opacity="0.4"/>
  <line x1="340" y1="492" x2="460" y2="492" stroke="#9E7A3A" stroke-width="1" opacity="0.2"/>
  <!-- Text -->
  <text x="400" y="530" font-family="Georgia, serif" font-size="11" fill="#9E7A3A" opacity="0.5" text-anchor="middle" letter-spacing="4">INNOV8 DEVELOPMENT</text>
  <text x="400" y="552" font-family="Georgia, serif" font-size="9" fill="#9E7A3A" opacity="0.3" text-anchor="middle" letter-spacing="3">PROGRAM INWESTYCYJNY</text>
</svg>